<?xml version="1.0" encoding="UTF-8"?>
<!-- Generator: Adobe Illustrator 27.5.0, SVG Export Plug-In . SVG Version: 6.00 Build 0)  -->
<svg version="1.1" xmlns="http://www.w3.org/2000/svg" xmlns:xlink="http://www.w3.org/1999/xlink" style="width:450px;height:425px;" viewBox="122 150 210 110">



<g>
	
	
<g>
		
		
		
		
		
		
		
		
		
		
		
		
		
		
		
		
		
		
		
		
		
		
		
		
		
		
		
		
		
		
		
		
		
		
		
		
		
		
		
		
		
		
		
		
		
		
		
		
		
		
		
		
		
		
		
		
		
		
		
		
		
		
		
		
		
		
		
		
		
		
		
		
		
		
		
		
		
		
		
		
		
		
		
		
		
		
		
		
		
		
		
		
		
		
		
		
		
		
		
		
		
		
		
		
		
		
		
		
		
		
		
		
		
		
		
		
		
		
		
		
		
		
		
		
		
		
		
		
		
		
		
		
		
		
		
		
		
		
		
		
		
		
		
		
		
		
		
		
		
		
		
		
		
		
		
		
		
		
		
		
		
		
		
		
		
		
		
		
		
		
		
		
		
		
		
		
		
		
		
		
		
		
		
		
		
		
		
		
		
		
		
		
		
		
		
		
		
		
		
		
		
		
		
		
		
		
		
		
		
		
		
		
		
		
		
		
		
		
		
		
		
		
		
		
		
		
		
		
		
		
		
		
		
		
		
		
		
		
		
		
		
		
		
		
		
		
		<path style="fill:#0C0C0C;" d="M276.5,230.325c-9.693,0-19.697-10.653-28.426-21.5c8.729-10.848,18.733-21.5,28.426-21.5    c11.855,0,21.5,9.645,21.5,21.5C298,220.68,288.356,230.325,276.5,230.325z M181.149,230.325c-11.855,0-21.5-9.645-21.5-21.5    c0-11.855,9.645-21.5,21.5-21.5c9.479,0,17.085,8.057,27.627,21.5C198.234,222.268,190.628,230.325,181.149,230.325z     M276.5,156.325c-20.523,0-35.946,13.54-47.996,27.548c-11.97-14.457-26.245-27.548-47.355-27.548    c-28.949,0-52.5,23.551-52.5,52.5s23.551,52.5,52.5,52.5c21.11,0,35.386-13.092,47.355-27.548    c12.05,14.009,27.473,27.548,47.996,27.548c28.948,0,52.5-23.551,52.5-52.5S305.449,156.325,276.5,156.325z"/><path style="fill:#0B0B0B;" d="M276.182,230.006c-9.693,0-19.697-10.653-28.426-21.5c8.729-10.848,18.733-21.5,28.426-21.5    c11.855,0,21.5,9.645,21.5,21.5S288.037,230.006,276.182,230.006z M180.83,230.006c-11.855,0-21.5-9.645-21.5-21.5    s9.645-21.5,21.5-21.5c9.479,0,17.085,8.057,27.627,21.5C197.915,221.949,190.309,230.006,180.83,230.006z M276.182,156.006    c-20.523,0-35.946,13.54-47.996,27.548c-11.97-14.457-26.245-27.548-47.355-27.548c-28.949,0-52.5,23.551-52.5,52.5    c0,28.949,23.551,52.5,52.5,52.5c21.11,0,35.386-13.092,47.355-27.548c12.05,14.009,27.473,27.548,47.996,27.548    c28.948,0,52.5-23.551,52.5-52.5C328.682,179.557,305.13,156.006,276.182,156.006z"/><path style="fill:#0A0A0A;" d="M275.863,229.687c-9.693,0-19.697-10.653-28.426-21.5c8.729-10.848,18.733-21.5,28.426-21.5    c11.855,0,21.5,9.645,21.5,21.5C297.363,220.042,287.719,229.687,275.863,229.687z M180.511,229.687    c-11.855,0-21.5-9.645-21.5-21.5c0-11.855,9.645-21.5,21.5-21.5c9.479,0,17.085,8.057,27.627,21.5    C197.596,221.63,189.99,229.687,180.511,229.687z M275.863,155.687c-20.523,0-35.946,13.54-47.996,27.548    c-11.97-14.457-26.246-27.548-47.355-27.548c-28.949,0-52.5,23.551-52.5,52.5c0,28.949,23.551,52.5,52.5,52.5    c21.11,0,35.386-13.091,47.355-27.548c12.05,14.009,27.473,27.548,47.996,27.548c28.948,0,52.5-23.551,52.5-52.5    C328.363,179.238,304.811,155.687,275.863,155.687z"/><path style="fill:#090909;" d="M275.544,229.368c-9.693,0-19.697-10.652-28.426-21.5c8.729-10.847,18.733-21.5,28.426-21.5    c11.855,0,21.5,9.645,21.5,21.5S287.4,229.368,275.544,229.368z M180.193,229.368c-11.855,0-21.5-9.645-21.5-21.5    s9.645-21.5,21.5-21.5c9.479,0,17.085,8.057,27.627,21.5C197.278,221.311,189.671,229.368,180.193,229.368z M275.544,155.368    c-20.523,0-35.946,13.54-47.996,27.548c-11.97-14.457-26.246-27.548-47.355-27.548c-28.949,0-52.5,23.551-52.5,52.5    c0,28.949,23.551,52.5,52.5,52.5c21.11,0,35.386-13.092,47.355-27.548c12.05,14.009,27.473,27.548,47.996,27.548    c28.948,0,52.5-23.551,52.5-52.5C328.044,178.92,304.492,155.368,275.544,155.368z"/><path style="fill:#080808;" d="M275.226,229.05c-9.693,0-19.697-10.653-28.426-21.5c8.729-10.848,18.733-21.5,28.426-21.5    c11.855,0,21.5,9.645,21.5,21.5C296.726,219.405,287.081,229.05,275.226,229.05z M179.874,229.05c-11.855,0-21.5-9.645-21.5-21.5    c0-11.855,9.645-21.5,21.5-21.5c9.479,0,17.085,8.057,27.627,21.5C196.959,220.993,189.353,229.05,179.874,229.05z     M275.226,155.05c-20.523,0-35.946,13.54-47.996,27.548c-11.97-14.457-26.245-27.548-47.355-27.548    c-28.949,0-52.5,23.551-52.5,52.5s23.551,52.5,52.5,52.5c21.11,0,35.386-13.092,47.355-27.548    c12.05,14.009,27.473,27.548,47.996,27.548c28.948,0,52.5-23.551,52.5-52.5S304.174,155.05,275.226,155.05z"/><path style="fill:#070707;" d="M274.907,228.731c-9.693,0-19.697-10.653-28.426-21.5c8.729-10.847,18.733-21.5,28.426-21.5    c11.855,0,21.5,9.645,21.5,21.5C296.407,219.086,286.762,228.731,274.907,228.731z M179.555,228.731    c-11.855,0-21.5-9.645-21.5-21.5c0-11.855,9.645-21.5,21.5-21.5c9.479,0,17.085,8.057,27.627,21.5    C196.64,220.674,189.034,228.731,179.555,228.731z M274.907,154.731c-20.523,0-35.946,13.54-47.996,27.548    c-11.97-14.457-26.245-27.548-47.355-27.548c-28.949,0-52.5,23.551-52.5,52.5c0,28.949,23.551,52.5,52.5,52.5    c21.11,0,35.386-13.092,47.355-27.548c12.05,14.009,27.473,27.548,47.996,27.548c28.948,0,52.5-23.551,52.5-52.5    C327.407,178.282,303.855,154.731,274.907,154.731z"/><path style="fill:#060606;" d="M274.588,228.412c-9.693,0-19.697-10.653-28.426-21.5c8.729-10.848,18.733-21.5,28.426-21.5    c11.855,0,21.5,9.645,21.5,21.5C296.088,218.767,286.444,228.412,274.588,228.412z M179.237,228.412    c-11.855,0-21.5-9.645-21.5-21.5c0-11.855,9.645-21.5,21.5-21.5c9.479,0,17.085,8.057,27.627,21.5    C196.322,220.355,188.715,228.412,179.237,228.412z M274.588,154.412c-20.523,0-35.946,13.54-47.996,27.548    c-11.97-14.457-26.246-27.548-47.355-27.548c-28.949,0-52.5,23.551-52.5,52.5c0,28.949,23.551,52.5,52.5,52.5    c21.11,0,35.386-13.092,47.355-27.549c12.05,14.009,27.473,27.549,47.996,27.549c28.948,0,52.5-23.551,52.5-52.5    C327.088,177.964,303.536,154.412,274.588,154.412z"/><path style="fill:#050505;" d="M274.269,228.094c-9.693,0-19.697-10.652-28.426-21.5c8.729-10.847,18.733-21.5,28.426-21.5    c11.855,0,21.5,9.645,21.5,21.5S286.125,228.094,274.269,228.094z M178.918,228.094c-11.855,0-21.5-9.645-21.5-21.5    s9.645-21.5,21.5-21.5c9.479,0,17.085,8.057,27.627,21.5C196.003,220.037,188.396,228.094,178.918,228.094z M274.269,154.094    c-20.523,0-35.946,13.54-47.996,27.548c-11.97-14.457-26.246-27.548-47.355-27.548c-28.949,0-52.5,23.551-52.5,52.5    c0,28.949,23.551,52.5,52.5,52.5c21.11,0,35.386-13.091,47.355-27.548c12.05,14.009,27.473,27.548,47.996,27.548    c28.948,0,52.5-23.551,52.5-52.5C326.769,177.645,303.218,154.094,274.269,154.094z"/>
		<path style="fill:#040404;" d="M273.951,227.775c-9.693,0-19.697-10.652-28.426-21.5c8.729-10.848,18.733-21.5,28.426-21.5    c11.855,0,21.5,9.645,21.5,21.5S285.806,227.775,273.951,227.775z M178.599,227.775c-11.855,0-21.5-9.645-21.5-21.5    s9.645-21.5,21.5-21.5c9.479,0,17.085,8.057,27.627,21.5C195.684,219.718,188.078,227.775,178.599,227.775z M273.951,153.775    c-20.523,0-35.946,13.54-47.996,27.548c-11.97-14.457-26.245-27.548-47.355-27.548c-28.949,0-52.5,23.551-52.5,52.5    s23.551,52.5,52.5,52.5c21.11,0,35.386-13.092,47.355-27.548c12.05,14.009,27.473,27.548,47.996,27.548    c28.948,0,52.5-23.551,52.5-52.5S302.899,153.775,273.951,153.775z"/>
		<path style="fill:#030303;" d="M273.632,227.456c-9.693,0-19.697-10.653-28.426-21.5c8.729-10.848,18.733-21.5,28.426-21.5    c11.855,0,21.5,9.645,21.5,21.5C295.132,217.811,285.487,227.456,273.632,227.456z M178.28,227.456    c-11.855,0-21.5-9.645-21.5-21.5c0-11.855,9.645-21.5,21.5-21.5c9.479,0,17.085,8.057,27.627,21.5    C195.365,219.399,187.759,227.456,178.28,227.456z M273.632,153.456c-20.523,0-35.946,13.539-47.996,27.548    c-11.97-14.457-26.245-27.548-47.355-27.548c-28.949,0-52.5,23.551-52.5,52.5c0,28.949,23.551,52.5,52.5,52.5    c21.11,0,35.386-13.092,47.355-27.548c12.05,14.009,27.473,27.548,47.996,27.548c28.948,0,52.5-23.551,52.5-52.5    C326.132,177.007,302.58,153.456,273.632,153.456z"/>
		
		
		
	<path d="M273.313,227.137c-9.693,0-19.697-10.653-28.426-21.5c8.729-10.848,18.733-21.5,28.426-21.5    c11.855,0,21.5,9.645,21.5,21.5C294.813,217.492,285.169,227.137,273.313,227.137z M177.962,227.137    c-11.855,0-21.5-9.645-21.5-21.5c0-11.855,9.645-21.5,21.5-21.5c9.479,0,17.085,8.057,27.627,21.5    C195.047,219.08,187.44,227.137,177.962,227.137z M273.313,153.137c-20.523,0-35.946,13.54-47.996,27.548    c-11.97-14.457-26.246-27.548-47.355-27.548c-28.949,0-52.5,23.551-52.5,52.5c0,28.949,23.551,52.5,52.5,52.5    c21.11,0,35.386-13.092,47.355-27.549c12.05,14.009,27.473,27.549,47.996,27.549c28.948,0,52.5-23.551,52.5-52.5    C325.813,176.689,302.262,153.137,273.313,153.137z" style="fill:#020202;"/><path d="M272.995,226.819c-9.693,0-19.697-10.652-28.426-21.5c8.729-10.847,18.733-21.5,28.426-21.5    c11.855,0,21.5,9.645,21.5,21.5C294.495,217.174,284.85,226.819,272.995,226.819z M177.643,226.819    c-11.855,0-21.5-9.645-21.5-21.5c0-11.855,9.645-21.5,21.5-21.5c9.479,0,17.085,8.057,27.627,21.5    C194.728,218.762,187.122,226.819,177.643,226.819z M272.995,152.819c-20.523,0-35.946,13.54-47.996,27.548    c-11.97-14.457-26.246-27.548-47.355-27.548c-28.949,0-52.5,23.551-52.5,52.5c0,28.949,23.551,52.5,52.5,52.5    c21.11,0,35.386-13.091,47.355-27.548c12.05,14.009,27.473,27.548,47.996,27.548c28.948,0,52.5-23.551,52.5-52.5    C325.495,176.37,301.943,152.819,272.995,152.819z" style="fill:#010101;"/><path d="M272.676,226.5c-9.693,0-19.697-10.652-28.426-21.5c8.729-10.848,18.733-21.5,28.426-21.5c11.855,0,21.5,9.645,21.5,21.5    S284.531,226.5,272.676,226.5z M177.324,226.5c-11.855,0-21.5-9.645-21.5-21.5s9.645-21.5,21.5-21.5    c9.479,0,17.085,8.057,27.627,21.5C194.409,218.443,186.803,226.5,177.324,226.5z M272.676,152.5    c-20.523,0-35.946,13.54-47.996,27.548c-11.97-14.457-26.245-27.548-47.355-27.548c-28.949,0-52.5,23.551-52.5,52.5    s23.551,52.5,52.5,52.5c21.11,0,35.386-13.092,47.355-27.548c12.05,14.009,27.473,27.548,47.996,27.548    c28.948,0,52.5-23.551,52.5-52.5S301.624,152.5,272.676,152.5z"/></g></g><g id="Layer_2">
	<g>
		<path style="fill:#FFFFFF;" d="M272.676,257.5c-26.997,0-45.176-23.428-58.449-40.535l-1.893-2.436    c-1.234-1.583-2.453-3.165-3.662-4.735c-12.557-16.303-20.79-26.294-31.348-26.294c-11.855,0-21.5,9.645-21.5,21.5h-31    c0-28.949,23.551-52.5,52.5-52.5c26.346,0,42.051,20.389,55.907,38.377c1.173,1.523,2.354,3.058,3.552,4.593l1.936,2.49    c9.865,12.715,22.144,28.539,33.957,28.539c11.855,0,21.5-9.645,21.5-21.5h31C325.176,233.949,301.624,257.5,272.676,257.5z"/>
	</g>
	
	<linearGradient id="SVGID_1_" gradientUnits="userSpaceOnUse" x1="201.2853" y1="181.4397" x2="247.8336" y2="227.988">
		<stop offset="0.1068" style="stop-color:#FFFFFF"/>
		<stop offset="0.6099" style="stop-color:#878787"/>
		<stop offset="0.9518" style="stop-color:#FFFFFF"/>
	</linearGradient><path style="fill:url(#SVGID_1_);" d="M260.68,221.826c-7.822-5.646-15.422-15.436-21.962-23.865l-1.936-2.49   c-1.197-1.536-2.379-3.07-3.552-4.593c-5.098-6.618-10.449-13.559-16.486-19.692l-21.895,21.895   c4.182,4.322,8.631,9.977,13.821,16.714c1.209,1.57,2.428,3.151,3.662,4.735l1.893,2.436c6.706,8.644,14.668,18.897,24.384,26.931   L260.68,221.826z"/>
	
	
<g>
		<path style="fill:#FFFFFF;" d="M177.324,257.5c-28.949,0-52.5-23.551-52.5-52.5h31c0,11.855,9.645,21.5,21.5,21.5    c10.558,0,18.791-9.992,31.348-26.294c1.209-1.57,2.428-3.151,3.662-4.735l1.893-2.436c13.273-17.107,31.452-40.535,58.449-40.535    c28.948,0,52.5,23.551,52.5,52.5h-31c0-11.855-9.645-21.5-21.5-21.5c-11.813,0-24.092,15.824-33.957,28.539l-1.936,2.49    c-1.197,1.536-2.379,3.07-3.552,4.593C219.375,237.111,203.67,257.5,177.324,257.5z"/>
	</g></g></svg>